<?xml version="1.0" encoding="UTF-8" standalone="no"?>
<!-- Created with Inkscape (http://www.inkscape.org/) -->

<svg
   xmlns:dc="http://purl.org/dc/elements/1.1/"
   xmlns:cc="http://creativecommons.org/ns#"
   xmlns:rdf="http://www.w3.org/1999/02/22-rdf-syntax-ns#"
   xmlns:svg="http://www.w3.org/2000/svg"
   xmlns="http://www.w3.org/2000/svg"
   xmlns:xlink="http://www.w3.org/1999/xlink"
   xmlns:inkscape="http://www.inkscape.org/namespaces/inkscape"
   version="1.0"
   width="256"
   height="256"
   id="svg310">
  <metadata
     id="metadata18">
    <rdf:RDF>
      <cc:Work
         rdf:about="">
        <dc:format>image/svg+xml</dc:format>
        <dc:type
           rdf:resource="http://purl.org/dc/dcmitype/StillImage" />
      </cc:Work>
    </rdf:RDF>
  </metadata>
  <defs
     id="defs2426">
    <linearGradient
       x1="112.49854"
       y1="6.1372099"
       x2="112.49853"
       y2="129.3468"
       id="path1082_2_"
       gradientUnits="userSpaceOnUse"
       gradientTransform="translate(287,-83)">
      <stop
         id="stop193"
         style="stop-color:#ffffff;stop-opacity:0"
         offset="0" />
      <stop
         id="stop195"
         style="stop-color:#ffffff;stop-opacity:0.27450982"
         offset="1" />
      <midPointStop
         id="midPointStop197"
         style="stop-color:#FFFFFF"
         offset="0" />
      <midPointStop
         id="midPointStop199"
         style="stop-color:#FFFFFF"
         offset="0.5" />
      <midPointStop
         id="midPointStop201"
         style="stop-color:#000000"
         offset="1" />
    </linearGradient>
    <linearGradient
       x1="541.33502"
       y1="104.50665"
       x2="606.91248"
       y2="303.14029"
       id="linearGradient2544"
       xlink:href="#path1082_2_"
       gradientUnits="userSpaceOnUse"
       gradientTransform="matrix(-0.6066055,0,0,0.6065715,524.31501,9.2325237)" />
  </defs>
  <g
     transform="translate(-57.51784,-56.601259)"
     id="layer1">
    <g
       transform="matrix(0.8746356,0,0,0.8746356,14.730518,23.408954)"
       id="g2424">
      <path
         d="M 128,0 C 116.60517,27.937051 109.68663,46.237167 97,73.34375 104.77849,81.588954 114.33826,91.155507 129.84375,102 113.17383,95.140422 101.81018,88.271499 93.3125,81.125 77.076035,115.00488 51.621649,163.24639 0,256 28.769666,239.39077 52.972321,227.31918 75.0625,219.71875 83.361916,207.26653 91.669361,194.82722 99.96875,182.375 91.661348,169.91077 83.344889,157.42674 75.03125,144.96875 c 6.232117,-0.0125 12.461625,0 18.6875,0 8.32612,12.458 16.62385,24.94202 24.9375,37.40625 -6.87512,10.30752 -13.74373,20.60283 -20.625,30.90625 2.33943,-0.49061 4.65625,-0.90327 6.96875,-1.28125 6.58678,-9.87961 13.17916,-19.73417 19.75,-29.625 -8.29496,-12.47047 -16.61129,-24.93578 -24.90625,-37.40625 6.31313,0.006 12.62436,-0.0125 18.9375,0 15.59802,23.28906 30.95664,46.72921 46.53125,70.03125 26.34451,6.73724 54.99456,20.39382 90.6875,41 -7.89193,-14.52961 -14.96051,-27.61983 -21.6875,-40.09375 -10.5961,-8.21269 -21.64301,-18.89743 -44.1875,-30.46875 15.4958,4.02645 26.60184,8.6825 35.25,13.875 C 156.97985,71.972668 151.45422,55.040373 128,0 z m 11.4375,166.78125 c 13.84152,-0.0125 27.68349,0 41.53125,0 0,4.15682 0,8.31193 0,12.46875 -11.0807,0.006 -22.14427,-0.006 -33.21875,0 -2.77952,-4.14435 -5.55168,-8.31192 -8.3125,-12.46875 z m 41.53125,18.6875 c 0,4.15683 0,8.31192 0,12.46875 -6.93012,0 -13.85736,0.0125 -20.78125,0 -2.76706,-4.15059 -5.52666,-8.28069 -8.28125,-12.4375 9.69095,-0.0125 19.37156,-0.0312 29.0625,-0.0312 z M 134.3125,196.5 c -3.05713,4.511 -6.07719,9.05778 -9.09375,13.59375 6.24587,-0.12702 12.48596,0.21473 18.78125,0.9375 -3.22786,-4.84529 -6.4429,-9.69357 -9.6875,-14.53125 z"
         inkscape:connector-curvature="0"
         transform="matrix(1.1433333,0,0,1.1433333,48.92017,37.949867)"
         id="path2518"
         style="fill:#4b5457;fill-opacity:1;fill-rule:evenodd;stroke:none" />
      <path
         d="M 277.64601,211.9169 C 214.20638,125.81103 199.50175,56.412315 195.77712,39.843809 c 33.84054,78.054531 33.6094,79.011711 81.86889,172.073091 z"
         inkscape:connector-curvature="0"
         id="path2522"
         style="fill:#ffffff;fill-opacity:0.16568047;fill-rule:evenodd;stroke:none" />
      <path
         d="m 128.46875,1.09375 c -1.42338,3.4991832 -2.81007,6.8947565 -4.125,10.125 -1.45671,3.578408 -2.84196,6.99457 -4.21875,10.34375 -1.37667,3.349221 -2.74109,6.617678 -4.09375,9.84375 -1.35275,3.226219 -2.70913,6.415755 -4.09375,9.625 -1.38453,3.209121 -2.77769,6.451805 -4.25,9.75 -1.47231,3.298304 -3.00915,6.662798 -4.625,10.15625 -1.61599,3.493487 -3.309697,7.111612 -5.125,10.90625 -0.251437,0.525579 -0.556619,1.123732 -0.8125,1.65625 7.75455,8.213222 17.30152,17.717236 32.71875,28.5 -16.62707,-6.841946 -27.9782,-13.685794 -36.46875,-20.8125 -0.440819,0.899926 -0.827105,1.703498 -1.28125,2.625 -0.597753,1.212962 -1.315459,2.59119 -1.9375,3.84375 -0.315418,0.646728 -0.646513,1.342488 -0.96875,2 -8.031878,16.38875 -18.342947,36.42086 -32.21875,62.375 32.465597,-18.29162 67.48339,-44.68199 131.09375,-21.96875 -3.18932,-6.0405 -6.12134,-11.70535 -8.875,-17.03125 C 176.43388,107.70518 173.87554,102.71647 171.5,98 c -2.37536,-4.716368 -4.57043,-9.163042 -6.625,-13.375 -2.05455,-4.21186 -3.959,-8.187269 -5.75,-12 -1.7911,-3.812642 -3.47764,-7.481436 -5.0625,-11 -1.58496,-3.518519 -3.09501,-6.889309 -4.53125,-10.21875 -1.43639,-3.329616 -2.81139,-6.598304 -4.15625,-9.84375 -1.34499,-3.245541 -2.65791,-6.483239 -3.96875,-9.75 -0.33293,-0.829513 -0.66696,-1.696124 -1,-2.53125 -3.72832,-8.739675 -7.50706,-17.78017 -11.9375,-28.1875 z"
         inkscape:connector-curvature="0"
         transform="matrix(1.1433333,0,0,1.1433333,48.92017,37.949867)"
         id="path2520"
         style="fill:url(#linearGradient2544);fill-opacity:1;fill-rule:evenodd;stroke:none" />
    </g>
  </g>
</svg>
